<?xml version="1.0" encoding="UTF-8" standalone="no"?>
<!-- Generator: Adobe Illustrator 19.0.0, SVG Export Plug-In . SVG Version: 6.00 Build 0)  -->

<svg
   xmlns:dc="http://purl.org/dc/elements/1.1/"
   xmlns:cc="http://creativecommons.org/ns#"
   xmlns:rdf="http://www.w3.org/1999/02/22-rdf-syntax-ns#"
   xmlns:svg="http://www.w3.org/2000/svg"
   xmlns="http://www.w3.org/2000/svg"
   xmlns:sodipodi="http://sodipodi.sourceforge.net/DTD/sodipodi-0.dtd"
   xmlns:inkscape="http://www.inkscape.org/namespaces/inkscape"
   version="1.1"
   id="Calque_1"
   x="0px"
   y="0px"
   viewBox="0 0 1230 300"
   style="enable-background:new 0 0 1230 300;"
   xml:space="preserve"
   sodipodi:docname="fresh-square.svg"
   inkscape:version="0.92.3 (2405546, 2018-03-11)"><metadata
   id="metadata15"><rdf:RDF><cc:Work
       rdf:about=""><dc:format>image/svg+xml</dc:format><dc:type
         rdf:resource="http://purl.org/dc/dcmitype/StillImage" /></cc:Work></rdf:RDF></metadata><defs
   id="defs13" /><sodipodi:namedview
   pagecolor="#ffffff"
   bordercolor="#666666"
   borderopacity="1"
   objecttolerance="10"
   gridtolerance="10"
   guidetolerance="10"
   inkscape:pageopacity="0"
   inkscape:pageshadow="2"
   inkscape:window-width="1299"
   inkscape:window-height="713"
   id="namedview11"
   showgrid="false"
   inkscape:zoom="0.27804878"
   inkscape:cx="615"
   inkscape:cy="150"
   inkscape:window-x="67"
   inkscape:window-y="27"
   inkscape:window-maximized="1"
   inkscape:current-layer="Calque_1" />
<style
   type="text/css"
   id="style2">
	.st0{fill:#FFFFFF;}
	.st1{fill:#F39208;}
</style>


<text
   xml:space="preserve"
   style="font-style:normal;font-weight:normal;font-size:443.20715332px;line-height:1.25;font-family:sans-serif;letter-spacing:0px;word-spacing:0px;fill:#f39208;fill-opacity:1;stroke:none;stroke-width:11.08017921"
   x="-4.9647079"
   y="320.953"
   id="text827"
   transform="scale(1.0828245,0.92351065)"><tspan
     sodipodi:role="line"
     id="tspan825"
     x="-4.9647079"
     y="320.953"
     style="font-style:normal;font-variant:normal;font-weight:normal;font-stretch:normal;font-family:'Fascinate Inline';-inkscape-font-specification:'Fascinate Inline';fill:#f39208;fill-opacity:1;stroke-width:11.08017921">D</tspan></text>

<g
   id="g896"
   transform="matrix(1.6674666,0,0,2.253711,-162.19633,-472.60409)"
   style="fill:#ffffff;fill-opacity:1"><path
     style="fill:#ffffff;fill-opacity:1;stroke-width:0.34151986"
     d="m 231.8049,298.50203 c -2.23351,-1.63792 -4.14632,-3.22137 -4.25068,-3.51878 -0.26104,-0.74389 0.7755,-1.75818 1.79673,-1.75818 0.46323,0 1.67748,0.52484 2.69833,1.16632 1.02084,0.64149 1.96694,1.08372 2.10244,0.98274 0.13549,-0.10097 0.24635,-2.78833 0.24635,-5.97192 0,-6.19435 0.0918,-6.49589 1.97808,-6.49589 1.88731,0 1.97807,0.29951 1.97807,6.52763 0,3.89306 0.14321,5.88602 0.43252,6.01927 0.23789,0.10957 1.17926,-0.34695 2.09196,-1.01447 0.91268,-0.66753 2.02566,-1.21368 2.47327,-1.21368 0.92047,0 2.12333,0.85784 2.12333,1.5143 0,0.53203 -8.37934,6.7407 -9.09738,6.7407 -0.28165,0 -2.33951,-1.34012 -4.57302,-2.97804 z m -13.54792,-7.98932 c -0.33718,-0.25127 -0.47474,-2.04023 -0.47474,-6.17385 0,-3.89306 -0.14321,-5.88602 -0.43252,-6.01927 -0.23788,-0.10956 -1.17926,0.34695 -2.09195,1.01447 -0.91269,0.66753 -2.02567,1.21368 -2.47328,1.21368 -0.92047,0 -2.12332,-0.85784 -2.12332,-1.5143 0,-0.53115 8.37874,-6.7407 9.09544,-6.7407 0.56573,0 8.15174,5.43685 8.76906,6.28473 0.52595,0.7224 -0.57439,1.97027 -1.73733,1.97027 -0.482,0 -1.60193,-0.53821 -2.52548,-1.21368 -0.91269,-0.66752 -1.85407,-1.12403 -2.09195,-1.01447 -0.2884,0.13283 -0.43252,2.06636 -0.43252,5.80279 0,3.2989 -0.16844,5.83813 -0.40953,6.17385 -0.46416,0.64632 -2.31963,0.77707 -3.07188,0.21648 z m -18.36875,-4.70687 c -5.0994,-0.50274 -9.92696,-3.23171 -12.28802,-6.94629 -1.16547,-1.83361 -1.26937,-2.23838 -1.26937,-4.94529 0,-2.7069 0.1039,-3.11167 1.26937,-4.94528 2.47237,-3.8897 7.05131,-6.37629 12.94445,-7.02948 l 2.99544,-0.33201 0.006,-1.36456 c 0.0167,-3.90325 2.66499,-8.29597 6.87309,-11.40051 5.8521,-4.31742 13.33941,-5.97391 21.31152,-4.71495 9.72779,1.53621 18.06,8.95867 18.09066,16.11546 l 0.006,1.36456 2.99543,0.33201 c 5.89314,0.65319 10.47209,3.13978 12.94445,7.02948 1.16622,1.83477 1.2692,2.23667 1.26726,4.94528 -0.002,2.6029 -0.13056,3.153 -1.09868,4.69655 -2.72466,4.34412 -7.9942,7.13365 -13.76323,7.28581 -1.73193,0.0457 -2.19485,-0.056 -2.80329,-0.61599 -1.50242,-1.38269 -0.5931,-2.26218 2.9024,-2.8072 3.31597,-0.51703 4.83512,-1.08743 6.9553,-2.61154 4.44792,-3.19741 4.31978,-8.8897 -0.27217,-12.09061 -2.57386,-1.79415 -4.25151,-2.27169 -8.81648,-2.50959 -2.18495,-0.11386 -4.05506,-0.35832 -4.33455,-0.56661 -0.29682,-0.2212 -0.59519,-1.67966 -0.75307,-3.68117 -0.30776,-3.90147 -1.16313,-5.84504 -3.70478,-8.41798 -7.00401,-7.09026 -22.32014,-7.09026 -29.32415,0 -2.54165,2.57294 -3.39701,4.51651 -3.70478,8.41798 -0.15788,2.00151 -0.45624,3.45997 -0.75307,3.68117 -0.28198,0.21014 -2.14405,0.44908 -4.36723,0.56039 -4.46704,0.22365 -6.40794,0.80445 -9.05597,2.70994 -4.31845,3.10748 -4.31845,8.79022 0,11.89771 2.08188,1.49808 4.26654,2.3322 6.83743,2.61057 2.44337,0.26456 3.22804,0.5582 3.55727,1.33121 0.30743,0.72185 -0.63955,1.91714 -1.6619,2.0977 -0.3948,0.0697 -1.73805,0.0262 -2.98502,-0.0968 z"
     id="path900"
     inkscape:connector-curvature="0" /></g></svg>
