<?xml version="1.0" encoding="UTF-8" standalone="no"?>
<!-- Generator: Adobe Illustrator 19.0.0, SVG Export Plug-In . SVG Version: 6.00 Build 0)  -->

<svg
   xmlns:dc="http://purl.org/dc/elements/1.1/"
   xmlns:cc="http://creativecommons.org/ns#"
   xmlns:rdf="http://www.w3.org/1999/02/22-rdf-syntax-ns#"
   xmlns:svg="http://www.w3.org/2000/svg"
   xmlns="http://www.w3.org/2000/svg"
   xmlns:sodipodi="http://sodipodi.sourceforge.net/DTD/sodipodi-0.dtd"
   xmlns:inkscape="http://www.inkscape.org/namespaces/inkscape"
   version="1.1"
   id="Calque_1"
   x="0px"
   y="0px"
   viewBox="0 0 1230 300"
   style="enable-background:new 0 0 1230 300;"
   xml:space="preserve"
   sodipodi:docname="fresh.svg"
   inkscape:version="0.92.3 (2405546, 2018-03-11)"><metadata
   id="metadata36"><rdf:RDF><cc:Work
       rdf:about=""><dc:format>image/svg+xml</dc:format><dc:type
         rdf:resource="http://purl.org/dc/dcmitype/StillImage" /></cc:Work></rdf:RDF></metadata><defs
   id="defs34" /><sodipodi:namedview
   pagecolor="#ffffff"
   bordercolor="#666666"
   borderopacity="1"
   objecttolerance="10"
   gridtolerance="10"
   guidetolerance="10"
   inkscape:pageopacity="0"
   inkscape:pageshadow="2"
   inkscape:window-width="1299"
   inkscape:window-height="713"
   id="namedview32"
   showgrid="false"
   inkscape:snap-global="false"
   inkscape:zoom="0.27804878"
   inkscape:cx="730.66598"
   inkscape:cy="150"
   inkscape:window-x="67"
   inkscape:window-y="27"
   inkscape:window-maximized="1"
   inkscape:current-layer="Calque_1" />
<style
   type="text/css"
   id="style2">
	.st0{fill:#344358;}
	.st1{fill:#F39208;}
	.st2{fill:#FCC010;}
	.st3{fill:#F49619;}
	.st4{fill:#EC630E;}
	.st5{fill:#CBEAFC;}
	.st6{fill:#77C2E0;}
	.st7{fill:#F9DE6A;}
	.st8{fill:#C6781A;}
	.st9{fill:#010202;}
</style>
<path
   style="font-style:normal;font-weight:normal;font-size:76.58779907px;line-height:1.25;font-family:sans-serif;letter-spacing:0px;word-spacing:0px;fill:#f39208;fill-opacity:1;stroke:none;stroke-width:7.17540693"
   d="m 277.6805,9.2271783 c -6.9503,0 -13.4982,1.1702967 -19.6426,3.5101257 -6.1445,2.253176 -11.4828,5.328841 -16.0156,9.228529 -4.5328,3.899688 -8.1593,8.493199 -10.8789,13.779434 -2.619,5.286236 -3.9297,10.918318 -3.9297,16.897872 0,5.892853 1.3107,11.482937 3.9297,16.769174 2.7196,5.199576 6.3461,9.749168 10.8789,13.648847 4.5328,3.899691 9.8711,7.019311 16.0156,9.359145 6.1444,2.253132 12.6923,3.379546 19.6426,3.379546 6.8495,0 13.2961,-1.126414 19.3398,-3.379546 6.1445,-2.339834 11.4828,-5.459454 16.0156,-9.359145 4.5328,-3.899679 8.1076,-8.449271 10.7266,-13.648847 2.7197,-5.286237 4.0801,-10.876321 4.0801,-16.769174 0,-5.979554 -1.3604,-11.611636 -4.0801,-16.897872 -2.619,-5.286235 -6.1938,-9.879746 -10.7266,-13.779434 -4.5328,-3.899688 -9.8711,-6.975353 -16.0156,-9.228529 C 290.9766,10.397475 284.53,9.2271783 277.6805,9.2271783 Z m 346.3046,0 c -6.9502,0 -13.4981,1.1702967 -19.6425,3.5101257 -6.1445,2.253176 -11.4829,5.328841 -16.0156,9.228529 -4.5329,3.899688 -8.1593,8.493199 -10.879,13.779434 -2.6189,5.286236 -3.9277,10.918318 -3.9277,16.897872 0,5.892853 1.3088,11.482937 3.9277,16.769174 2.7197,5.199576 6.3461,9.749168 10.879,13.648847 4.5327,3.899691 9.8711,7.019311 16.0156,9.359145 6.1444,2.253132 12.6923,3.379546 19.6425,3.379546 6.8496,0 13.2962,-1.126414 19.3399,-3.379546 6.1444,-2.339834 11.4828,-5.459454 16.0156,-9.359145 4.5328,-3.899679 8.1096,-8.449271 10.7285,-13.648847 2.7197,-5.286237 4.0782,-10.876321 4.0782,-16.769174 0,-5.979554 -1.3585,-11.611636 -4.0782,-16.897872 -2.6189,-5.286235 -6.1957,-9.879746 -10.7285,-13.779434 -4.5328,-3.899688 -9.8712,-6.975353 -16.0156,-9.228529 -6.0437,-2.339829 -12.4903,-3.5101257 -19.3399,-3.5101257 z M 287.198,21.447393 c 4.0292,0.953239 7.7053,2.425209 11.0293,4.418385 3.4248,1.906512 6.3462,4.247183 8.7637,7.020289 2.5182,2.686485 4.4824,5.718233 5.8926,9.097946 1.4102,3.379769 2.1152,6.932747 2.1152,10.659126 0,3.726333 -0.705,7.279367 -2.1152,10.65908 -1.4102,3.379721 -3.3744,6.457343 -5.8926,9.230432 -2.4175,2.686448 -5.3389,5.025223 -8.7637,7.018383 -3.324,1.993184 -7.0001,3.423143 -11.0293,4.289772 4.7343,-3.986344 8.462,-8.665798 11.1817,-14.038693 2.8204,-5.372873 4.2305,-11.09281 4.2305,-17.158974 0,-6.066208 -1.4101,-11.784184 -4.2305,-17.15712 C 295.66,30.11314 291.9323,25.433737 287.198,21.447393 Z m 346.3047,0 c 4.0292,0.953239 7.7073,2.425209 11.0313,4.418385 3.4248,1.906512 6.3461,4.247183 8.7636,7.020289 2.5183,2.686485 4.4824,5.718233 5.8926,9.097946 1.4102,3.379769 2.1152,6.932747 2.1152,10.659126 0,3.726333 -0.705,7.279367 -2.1152,10.65908 -1.4102,3.379721 -3.3743,6.457343 -5.8926,9.230432 -2.4175,2.686448 -5.3388,5.025223 -8.7636,7.018383 -3.324,1.993184 -7.0021,3.423143 -11.0313,4.289772 4.7342,-3.986344 8.462,-8.665798 11.1817,-14.038693 2.8204,-5.372873 4.2304,-11.09281 4.2304,-17.158974 0,-6.066208 -1.41,-11.784184 -4.2304,-17.15712 -2.7197,-5.372879 -6.4475,-10.052282 -11.1817,-14.038626 z m 461.7423,7.018339 c -4.835,0 -8.7633,0.38965 -11.7853,1.169456 -3.0218,0.779928 -5.3891,1.906342 -7.1015,3.379545 -1.7124,1.473202 -2.8721,3.380486 -3.4766,5.720305 -0.6043,2.253132 -0.9063,4.853477 -0.9063,7.799881 V 153.66539 h -28.8828 c -0.5288,-3.83598 -1.3242,-7.35271 -2.3926,-10.54768 -2.1152,-6.32617 -5.1378,-11.65663 -9.0664,-15.98962 -3.8276,-4.333 -8.4113,-7.80006 -13.75,-10.39984 -5.2379,-2.68649 -11.0787,-4.72163 -17.5253,-6.10821 -6.3459,-1.47322 -13.146,-2.42781 -20.3984,-2.86112 -7.1518,-0.43327 -14.504,-0.64902 -22.0586,-0.64902 -7.9576,0 -15.6633,0.5193 -23.1172,1.55922 -7.4539,1.0399 -14.4049,2.38396 -20.8516,4.03052 -6.3459,1.64651 -12.0874,3.50991 -17.2246,5.58974 -5.1372,2.07981 -9.3674,4.11501 -12.6914,6.10817 -0.6044,0.34688 -1.2597,0.78002 -1.9648,1.29999 -0.6044,0.51995 -0.9063,1.12709 -0.9063,1.82037 0,0.69326 0.2521,1.34236 0.7559,1.94899 l 5.1367,7.02028 c 0.8058,1.12659 1.6618,1.68981 2.5684,1.68981 0.5036,0 1.008,-0.13003 1.5117,-0.38965 0.5036,-0.26004 1.0577,-0.56356 1.6621,-0.91017 1.3094,-0.69327 2.9201,-1.47223 4.834,-2.33881 1.9138,-0.86658 3.9296,-1.64749 6.0449,-2.34076 2.1153,-0.77993 4.28,-1.42903 6.4961,-1.94899 2.3167,-0.51997 4.4815,-0.78155 6.4961,-0.78155 1.7124,0 3.4759,0.17365 5.289,0.52039 1.9139,0.26006 3.6258,0.91102 5.1367,1.95095 1.6117,0.95324 2.9225,2.42522 3.9297,4.41838 1.0073,1.99318 1.5098,4.67941 1.5098,8.05913 v 8.96932 c -1.1415,0.0767 -2.2756,0.17365 -3.4063,0.28037 H 823.2762 v -2.74971 h 27.1972 c 2.1153,0 3.1719,-0.95269 3.1719,-2.8592 v -10.39988 c 0,-1.81987 -1.0566,-2.72863 -3.1719,-2.72863 H 823.2762 V 75.261496 c 0,-1.299896 -0.2521,-2.382395 -0.7559,-3.248977 -0.5036,-0.953283 -1.157,-1.690214 -1.9629,-2.210183 -0.7051,-0.519968 -1.5114,-0.865524 -2.418,-1.038831 -0.8058,-0.260043 -1.5605,-0.389658 -2.2656,-0.389658 -1.9138,0 -4.1302,0.30157 -6.6484,0.908263 -2.5182,0.606633 -5.6919,1.517342 -9.5196,2.730585 l -83.4023,26.51807 c -2.0146,0.693287 -3.2737,1.689895 -3.7773,2.989785 -0.403,1.29989 -0.6055,2.60004 -0.6055,3.89993 v 29.50787 h -15.7129 c -2.1153,0 -3.1738,0.90875 -3.1738,2.72862 v 10.39988 c 0,1.90653 1.0585,2.8592 3.1738,2.8592 h 15.7129 v 2.74973 H 679.284 v -27.31691 c 0,-3.11975 -0.2502,-5.80598 -0.7539,-8.05911 -0.5037,-2.25318 -1.5622,-4.11654 -3.1738,-5.58974 -1.6117,-1.4732 -3.8778,-2.55765 -6.7989,-3.25092 -2.8204,-0.77993 -6.5481,-1.16941 -11.1816,-1.16941 H 591.198 c -4.8349,0 -8.7632,0.38964 -11.7851,1.16941 -3.0219,0.77993 -5.3892,1.90634 -7.1016,3.37959 -1.7124,1.4732 -2.8702,3.38049 -3.4746,5.72031 -0.6044,2.25313 -0.9082,4.85342 -0.9082,7.79987 v 27.31691 H 540.075 c -0.2026,-1.11439 -0.4363,-2.20595 -0.7031,-3.27012 -1.0073,-4.41965 -2.5167,-8.49192 -4.5313,-12.2183 l 21.9082,-13.25903 c 2.5182,-1.5599 3.7774,-3.29345 3.7774,-5.19997 0,-1.29989 -0.6058,-2.55612 -1.8145,-3.76937 l -7.4023,-6.75914 c -1.3095,-1.12654 -2.7712,-1.68979 -4.3829,-1.68979 -0.9065,0 -1.9134,0.21558 -3.0214,0.64906 -1.0073,0.4333 -2.0639,1.12823 -3.1719,2.08152 l -16.4707,14.42844 c -4.6335,-4.15965 -9.9719,-7.58282 -16.0156,-10.26926 -5.943,-2.6865 -12.2883,-4.80947 -19.0371,-6.36937 -6.6481,-1.64652 -13.4979,-2.77293 -20.5489,-3.37954 -7.051,-0.60664 -13.9504,-0.91022 -20.6992,-0.91022 -7.5546,0 -15.1094,0.47541 -22.6641,1.42866 -7.5546,0.86662 -14.8075,2.3405 -21.7578,4.42032 -6.8495,1.99318 -13.2464,4.59347 -19.1894,7.79988 -5.943,3.20642 -11.1305,7.14887 -15.5625,11.82854 -4.3313,4.59295 -7.7552,9.96538 -10.2735,16.11823 -2.5182,6.06616 -3.7773,12.95643 -3.7773,20.66915 0,11.3524 2.5183,20.92889 7.5547,28.72828 5.0364,7.79937 11.6836,14.12447 19.9434,18.97743 -2.619,2.07983 -5.2366,4.42051 -7.8555,7.02024 -2.619,2.51316 -4.9366,5.37311 -6.9512,8.57953 -2.0146,3.2064 -3.6768,6.8014 -4.9863,10.78775 -1.2088,3.89968 -1.8125,8.23353 -1.8125,12.99984 0,4.41964 0.9056,9.09905 2.7187,14.03867 1.8131,4.93958 4.7346,9.44524 8.7637,13.51824 4.0292,4.15969 9.2682,7.58287 15.7149,10.26931 6.5473,2.68644 14.5052,4.03051 23.873,4.03051 6.7488,0 13.1438,-0.30367 19.1875,-0.91017 6.1444,-0.51996 12.0369,-1.12708 17.6777,-1.82036 5.6408,-0.60662 11.1818,-1.21184 16.6211,-1.81846 5.4394,-0.51994 10.9287,-0.7815 16.4688,-0.7815 12.8932,0 20.2971,2.03709 22.2109,6.11012 0.2015,0.34645 0.5033,0.78003 0.9063,1.29995 0.4029,0.60661 1.3105,0.9102 2.7207,0.9102 h 11.1796 c 1.511,0 2.5179,-0.30366 3.0215,-0.9102 0.6044,-0.60658 1.0076,-1.12592 1.209,-1.55918 1.108,-3.29307 2.1666,-6.76017 3.1738,-10.39989 1.1081,-3.63968 1.6622,-7.88573 1.6622,-12.73864 0,-5.4596 -1.1082,-10.31274 -3.3243,-14.55908 -2.216,-4.24629 -5.1871,-7.8432 -8.914,-10.78964 -3.6263,-2.85976 -7.8068,-5.02671 -12.541,-6.49991 -4.7343,-1.55989 -9.5702,-2.33881 -14.5059,-2.33881 -5.1372,0 -10.0227,0.30367 -14.6563,0.91017 -4.5328,0.51995 -9.0648,1.12709 -13.5976,1.82037 -4.5328,0.60662 -9.1662,1.16982 -13.9004,1.68974 -4.7343,0.60667 -9.872,0.9083 -15.4121,0.9083 -5.0364,0 -9.3163,-0.47541 -12.8418,-1.42864 -3.5255,-0.95327 -6.3973,-2.25343 -8.6133,-3.89994 -2.1153,-1.64656 -3.6763,-3.55383 -4.6836,-5.72032 -1.0073,-2.25316 -1.5117,-4.67974 -1.5117,-7.27952 v -1.16941 c 0,-0.4333 0.052,-0.86666 0.1523,-1.29998 6.9503,1.99317 14.2031,3.46705 21.7578,4.42033 7.5547,0.86658 15.1591,1.29999 22.8145,1.29999 7.051,0 14.2523,-0.3473 21.6054,-1.04075 7.3532,-0.69331 14.4552,-1.90562 21.3047,-3.63882 6.9503,-1.73318 13.4465,-4.11777 19.4903,-7.15088 4.2781,-2.14699 8.1703,-4.71455 11.6914,-7.68658 v 0.97162 h 45.875 v 13.47606 c 0,3.03306 0.3038,5.67537 0.9082,7.92854 0.6043,2.25313 1.7622,4.11654 3.4746,5.58974 1.7124,1.4732 4.0797,2.59962 7.1015,3.37955 3.0219,0.77993 6.9502,1.16941 11.7852,1.16941 h 66.1777 c 4.6336,0 8.3613,-0.34561 11.1817,-1.03883 2.9211,-0.77993 5.1871,-1.90636 6.7988,-3.37956 1.6117,-1.55991 2.6702,-3.42326 3.1738,-5.58973 0.5037,-2.25318 0.7539,-4.85348 0.7539,-7.79993 v -13.73525 h 33.0098 c 0.654,6.4647 2.1841,11.83285 4.6133,16.07601 3.4248,5.80621 8.1078,10.18207 14.0508,13.12848 6.0437,2.94644 13.1456,4.8098 21.3047,5.58973 8.2597,0.86659 17.1749,1.29999 26.7441,1.29999 6.6481,0 13.2953,-0.3473 19.9433,-1.04075 6.6482,-0.60662 12.9438,-1.47342 18.8868,-2.59996 6.0437,-1.03994 11.6343,-2.25224 16.7715,-3.63884 5.2379,-1.38653 9.7719,-2.77453 13.5996,-4.16108 0.6044,-0.17323 1.3094,-0.56278 2.1152,-1.16941 0.8058,-0.60662 1.2071,-1.77695 1.2071,-3.51012 v -10.00816 c 0,-1.12654 -0.5542,-1.68979 -1.6622,-1.68979 -0.6044,0 -1.3591,0.13001 -2.2656,0.38963 -0.9066,0.17324 -1.9135,0.38923 -3.0215,0.64903 -1.0073,0.17322 -2.1155,0.39092 -3.3242,0.65096 -1.2088,0.17322 -2.3666,0.2592 -3.4746,0.2592 -4.9357,0 -8.6138,-1.25623 -11.0313,-3.76936 -1.3822,-1.49947 -2.3428,-3.66069 -2.9004,-6.45577 h 50.1563 c 0.3197,1.05776 0.6815,2.08626 1.0957,3.07618 1.8131,4.33299 4.2798,8.10362 7.4023,11.31004 3.2234,3.20641 7.0007,5.89264 11.3321,8.05911 4.3313,2.16648 8.9646,3.94206 13.9004,5.3286 5.0364,1.29989 10.2754,2.25258 15.7148,2.8592 5.5401,0.60662 11.0294,0.91017 16.4688,0.91017 h 80.6835 c 4.835,0 8.7633,-0.34561 11.7852,-1.03884 3.0219,-0.77992 5.3892,-1.90635 7.1016,-3.37955 1.7123,-1.47325 2.8702,-3.29459 3.4746,-5.4611 0.6043,-2.25314 0.9062,-4.80957 0.9062,-7.66931 v -13.9945 h 28.1035 v 13.47606 c 0,3.03306 0.302,5.67537 0.9063,7.92854 0.6044,2.25313 1.7642,4.11653 3.4765,5.58974 1.7124,1.4732 4.0797,2.59962 7.1016,3.37954 3.0219,0.77993 6.9502,1.16942 11.7852,1.16942 h 65.875 c 4.6335,0 8.3612,-0.34561 11.1816,-1.03884 2.9211,-0.77992 5.1872,-1.90635 6.7988,-3.37955 1.6117,-1.5599 2.72,-3.42326 3.3242,-5.58973 0.6044,-2.25318 0.9063,-4.85347 0.9063,-7.79992 V 46.404516 c 0,-3.033059 -0.302,-5.67537 -0.9063,-7.928546 -0.5035,-2.253131 -1.5602,-4.116488 -3.1718,-5.589735 -1.6117,-1.473203 -3.8281,-2.557606 -6.6485,-3.250879 -2.8204,-0.779974 -6.5481,-1.169456 -11.1816,-1.169456 z m 63.4589,10.920278 c 2.4175,0 4.3816,0.08595 5.8925,0.259191 1.5111,0.08684 2.7185,0.432211 3.6251,1.038841 0.9066,0.519963 1.5122,1.344738 1.8144,2.471333 0.3024,1.126581 0.4531,2.642433 0.4531,4.548955 v 105.96106 h -11.7851 z M 34.571,54.724618 c -4.8349,0 -8.7633,0.38965 -11.7851,1.1694 -3.0219,0.779974 -5.3892,1.950315 -7.1016,3.510172 -1.7124,1.473203 -2.8702,3.336559 -3.4746,5.589735 -0.6044,2.253132 -0.9062,4.895441 -0.9062,7.92855 V 223.32105 c 0,3.03307 0.3018,5.67537 0.9062,7.92855 0.6044,2.25314 1.7622,4.11654 3.4746,5.58974 1.7124,1.4732 4.0797,2.59962 7.1016,3.37955 3.0218,0.77993 6.9502,1.16941 11.7851,1.16941 h 71.1641 c 7.3532,0 14.7074,-0.43341 22.0606,-1.29999 7.4539,-0.86658 14.6055,-2.5562 21.4551,-5.06934 6.9503,-2.59979 13.3968,-6.15277 19.3398,-10.65909 6.0437,-4.59295 11.2312,-10.57255 15.5625,-17.93861 4.4321,-7.36611 7.9076,-16.29151 10.4258,-26.77733 2.6189,-10.57251 3.9277,-23.09482 3.9277,-37.56702 0,-12.30567 -1.2094,-23.00854 -3.6269,-32.10782 -2.4175,-9.09927 -5.7401,-16.898294 -9.9707,-23.397767 -4.2306,-6.499484 -9.2671,-11.786008 -15.1094,-15.859052 -5.7415,-4.15964 -11.9875,-7.409086 -18.7363,-9.748872 -6.7488,-2.339831 -13.8508,-3.943559 -21.3047,-4.810143 -7.4539,-0.953239 -14.9571,-1.428648 -22.5117,-1.428648 z m 64.8184,17.938613 h 11.7852 V 223.44968 H 99.3894 Z m 24.629,0.259197 c 9.3677,0.08689 17.3753,1.86218 24.0234,5.328591 6.7488,3.466365 12.2898,8.319514 16.6211,14.559015 4.3313,6.239524 7.503,13.778886 9.5176,22.618196 2.0145,8.83925 3.0214,18.63341 3.0214,29.3792 0,10.83246 -1.0069,21.01413 -3.0214,30.54671 -2.0146,9.4459 -5.1863,17.7222 -9.5176,24.82834 -4.2306,7.1061 -9.7219,12.73819 -16.4707,16.89784 -6.7488,4.07298 -14.8061,6.15403 -24.1738,6.2407 z m 682.4863,8.189698 c 1.7124,0 2.7709,0.563213 3.1738,1.689802 0.5037,1.039878 0.7559,2.42597 0.7559,4.159181 V 153.66536 H 798.6492 V 83.191705 l 2.416,-0.910168 c 1.108,-0.433315 2.1169,-0.736861 3.0235,-0.91018 1.0072,-0.173213 1.8116,-0.259184 2.416,-0.259184 z M 244.8934,108.27931 c -4.835,0 -8.7653,0.38965 -11.7872,1.16941 -3.0218,0.77993 -5.3872,1.90634 -7.0996,3.37958 -1.7124,1.47321 -2.8722,3.38049 -3.4765,5.72031 -0.6044,2.25314 -0.9063,4.85343 -0.9063,7.79989 v 96.97255 c 0,3.03307 0.3019,5.67537 0.9063,7.92855 0.6043,2.25314 1.7641,4.11654 3.4765,5.58974 1.7124,1.4732 4.0778,2.59962 7.0996,3.37955 3.0219,0.77993 6.9522,1.16941 11.7872,1.16941 h 66.1777 c 4.6335,0 8.3612,-0.3456 11.1816,-1.03883 2.9212,-0.77993 5.1872,-1.90635 6.7989,-3.37956 1.6116,-1.5599 2.6682,-3.42326 3.1718,-5.58974 0.5037,-2.25317 0.7559,-4.85347 0.7559,-7.79992 V 126.3485 c 0,-3.11975 -0.2522,-5.80599 -0.7559,-8.05912 -0.5036,-2.25318 -1.5602,-4.11654 -3.1718,-5.58974 -1.6117,-1.47321 -3.8777,-2.55766 -6.7989,-3.25092 -2.8204,-0.77993 -6.5481,-1.16941 -11.1816,-1.16941 z m 63.4589,10.92022 c 2.4175,0 4.3817,0.086 5.8926,0.25921 1.5109,0.0869 2.7185,0.43412 3.625,1.04074 0.9066,0.51996 1.5123,1.3428 1.8145,2.46938 0.3021,1.12659 0.4531,2.64248 0.4531,4.549 v 94.63181 c 0,1.99316 -0.151,3.55297 -0.4531,4.67957 -0.3022,1.03992 -0.9079,1.86466 -1.8145,2.47128 -0.9065,0.51997 -2.1141,0.86553 -3.625,1.03883 -1.5109,0.0869 -3.4751,0.13045 -5.8926,0.13045 z m 346.3047,0 c 2.4175,0 4.3817,0.086 5.8926,0.25921 1.5109,0.0869 2.7184,0.43412 3.625,1.04074 0.9066,0.51996 1.5123,1.3428 1.8144,2.46938 0.3024,1.12659 0.4532,2.64248 0.4532,4.549 v 26.1475 H 654.657 Z m 350.5352,3.63881 c 2.6189,0.77992 5.4391,1.99418 8.461,3.64074 3.0218,1.55985 5.7923,3.89862 8.3105,7.01833 2.6189,3.03311 4.7857,6.97556 6.4981,11.82853 0.8886,2.47367 1.5411,5.25888 1.9686,8.33945 h -11.6347 c -0.2499,-2.31622 -0.601,-4.49398 -1.0625,-6.51908 -1.0073,-4.50635 -2.2167,-8.36288 -3.627,-11.56929 -1.4101,-3.20641 -2.9712,-5.84873 -4.6835,-7.92854 -1.6118,-2.07983 -3.0218,-3.68357 -4.2305,-4.81014 z m -523.084,5.58972 c -2.0146,0.34645 -4.5328,1.25734 -7.5547,2.73054 -2.9211,1.47325 -5.7412,3.72608 -8.4609,6.75914 -2.7197,2.94644 -5.087,6.75909 -7.1016,11.43871 -1.9138,4.59297 -2.8711,10.13912 -2.8711,16.63864 0,6.49948 0.8063,12.08956 2.418,16.76916 1.6116,4.67966 3.6771,8.57821 6.1953,11.69796 2.5182,3.03307 5.2887,5.32983 8.3105,6.88972 3.1226,1.55986 6.1434,2.51254 9.0645,2.85917 -4.835,0 -9.5696,-0.69303 -14.2031,-2.07958 -4.5328,-1.47321 -8.5605,-3.72605 -12.086,-6.75915 -3.5255,-3.03309 -6.3972,-6.97557 -8.6132,-11.82848 -2.1154,-4.85297 -3.1719,-10.70271 -3.1719,-17.5488 0,-6.84614 1.2591,-12.65195 3.7773,-17.41826 2.5182,-4.76627 5.6402,-8.62284 9.3672,-11.56926 3.8277,-3.03309 7.9566,-5.19999 12.3887,-6.49989 4.432,-1.38655 8.6126,-2.07962 12.541,-2.07962 z m 12.8438,6.4999 c 2.4174,0 4.7848,0.25963 7.1015,0.77965 2.4175,0.51995 4.6319,1.42872 6.6465,2.72861 l -9.6699,8.57947 c -0.9066,0.77998 -1.3594,1.69065 -1.3594,2.73059 0,0.86658 0.2521,1.51568 0.7559,1.94898 l 3.0215,2.86111 c 0.8058,0.86663 1.8643,1.29998 3.1738,1.29998 0.8058,0 1.6102,-0.21769 2.416,-0.65096 l 10.125,-6.10817 c 1.7124,4.24634 2.5684,9.61875 2.5684,16.11823 0,6.49948 -0.7051,11.82803 -2.1153,15.98768 -1.4102,4.07303 -3.275,7.32243 -5.5918,9.74892 -2.216,2.33983 -4.8336,3.98744 -7.8555,4.94072 -3.0218,0.86657 -6.0942,1.29998 -9.2167,1.29998 -3.3241,0 -6.5474,-0.3473 -9.67,-1.04078 -3.1226,-0.69328 -5.893,-2.12324 -8.3105,-4.28972 -2.4175,-2.16651 -4.3816,-5.28611 -5.8926,-9.35914 -1.4102,-4.15965 -2.1152,-9.66193 -2.1152,-16.50802 0,-6.84614 0.9056,-12.3064 2.7187,-16.37939 1.8131,-4.15969 4.0295,-7.3213 6.6484,-9.48778 2.7197,-2.16651 5.5398,-3.55446 8.461,-4.16113 3.0218,-0.69327 5.7427,-1.03883 8.1602,-1.03883 z m 291.6093,25.65594 h 12.668 v 5.71456 h -12.668 z m -216.3808,1.54581 h 15.7656 l 39.1719,36.60689 h -14.4571 l -9.3632,-9.39177 h -46.3321 l -9.3633,9.39177 h -14.664 z m 328.8047,1.34796 h 12.7363 v 7.79797 h 26.0937 v 3.50632 h -26.0937 v 14.90657 c 0,2.23941 0.8506,3.67725 2.5488,4.31475 1.7441,0.63749 5.255,0.95624 10.5332,0.95624 h 13.0117 v 3.77708 h -13.0117 c -9.7761,0 -16.5226,-0.64619 -20.2402,-1.93752 -3.7177,-1.30765 -5.5781,-3.6779 -5.5781,-7.11055 v -14.90657 h -9.293 v -3.50632 h 9.293 z m 231.3222,0 h 12.7364 v 7.79797 h 26.0917 v 3.50632 h -26.0917 v 14.90657 c 0,2.23941 0.8487,3.67725 2.5468,4.31475 1.7441,0.63749 5.2551,0.95624 10.5332,0.95624 h 13.0117 v 3.77708 h -13.0117 c -9.776,0 -16.5225,-0.64619 -20.2402,-1.93752 -3.7177,-1.30765 -5.5762,-3.6779 -5.5762,-7.11055 v -14.90657 h -9.295 v -3.50632 h 9.295 z m -552.2793,3.53126 -18.8633,18.21705 h 37.7969 z m 85.9883,3.60423 c 4.6815,0 9.088,0.12155 13.2188,0.36678 4.1307,0.24522 7.9395,0.61374 11.4277,1.10414 v 4.26667 c -3.58,-0.6538 -7.297,-1.14395 -11.1524,-1.47087 -3.8553,-0.32697 -7.8497,-0.49155 -11.9804,-0.49155 -6.2879,0 -11.0148,0.34475 -14.1817,1.03112 -3.121,0.68656 -4.6816,1.71467 -4.6816,3.08771 0,1.04615 1.1241,1.87229 3.373,2.47709 2.249,0.58844 6.7698,1.15229 13.5625,1.69169 l 4.3379,0.34349 c 8.9958,0.68654 15.3751,1.6582 19.1387,2.9168 3.8094,1.2423 5.7148,2.9836 5.7148,5.223 0,2.54994 -2.8458,4.56887 -8.5371,6.05635 -5.6453,1.48747 -13.4241,2.23126 -23.3378,2.23126 -4.1308,0 -8.4455,-0.14738 -12.9434,-0.44165 -4.452,-0.27783 -9.1564,-0.70289 -14.1133,-1.27498 v -4.65844 c 4.6815,0.86633 9.2941,1.5211 13.8379,1.96242 4.5438,0.42502 9.0421,0.63754 13.4941,0.63754 5.9666,0 10.5568,-0.36001 13.7696,-1.07915 3.2128,-0.73559 4.8183,-1.76562 4.8183,-3.08965 0,-1.22594 -1.1709,-2.16504 -3.5117,-2.81884 -2.2949,-0.65384 -7.3665,-1.28468 -15.2148,-1.88949 l -4.4063,-0.36678 c -7.8484,-0.58845 -13.5157,-1.48832 -17.0039,-2.69788 -3.4882,-1.22595 -5.2324,-2.90023 -5.2324,-5.02521 0,-2.58264 2.5705,-4.57763 7.7109,-5.98336 5.1405,-1.40574 12.4378,-2.10842 21.8926,-2.10842 z m 73.5273,0 c 4.6815,0 9.0881,0.12155 13.2188,0.36678 4.1307,0.24522 7.9396,0.61374 11.4277,1.10414 v 4.26667 c -3.5799,-0.6538 -7.297,-1.14395 -11.1523,-1.47087 -3.8554,-0.32697 -7.8497,-0.49155 -11.9805,-0.49155 -6.2879,0 -11.0147,0.34475 -14.1816,1.03112 -3.121,0.68656 -4.6817,1.71467 -4.6817,3.08771 0,1.04615 1.1241,1.87229 3.3731,2.47709 2.2489,0.58844 6.7697,1.15229 13.5625,1.69169 l 4.3379,0.34349 c 8.9958,0.68654 15.3751,1.6582 19.1387,2.9168 3.8094,1.2423 5.7148,2.9836 5.7148,5.223 0,2.54994 -2.8459,4.56887 -8.5371,6.05635 -5.6454,1.48747 -13.4242,2.23126 -23.3379,2.23126 -4.1308,0 -8.4455,-0.14738 -12.9434,-0.44165 -4.452,-0.27783 -9.1564,-0.70289 -14.1132,-1.27498 v -4.65844 c 4.6814,0.86633 9.294,1.5211 13.8378,1.96242 4.5438,0.42502 9.0422,0.63754 13.4942,0.63754 5.9666,0 10.5548,-0.36001 13.7676,-1.07915 3.2127,-0.73559 4.8203,-1.76562 4.8203,-3.08965 0,-1.22594 -1.171,-2.16504 -3.5118,-2.81884 -2.2948,-0.65384 -7.3664,-1.28468 -15.2148,-1.88949 l -4.4062,-0.36678 c -7.8484,-0.58845 -13.5158,-1.48832 -17.0039,-2.69788 -3.4882,-1.22595 -5.2325,-2.90023 -5.2325,-5.02521 0,-2.58264 2.5705,-4.57763 7.711,-5.98336 5.1404,-1.40574 12.4378,-2.10842 21.8925,-2.10842 z m 112.6309,0 c 4.6815,0 9.088,0.12155 13.2187,0.36678 4.1308,0.24522 7.9396,0.61374 11.4278,1.10414 v 4.26667 c -3.58,-0.6538 -7.297,-1.14395 -11.1523,-1.47087 -3.8554,-0.32697 -7.8498,-0.49155 -11.9805,-0.49155 -6.2879,0 -11.0148,0.34475 -14.1817,1.03112 -3.1209,0.68656 -4.6816,1.71467 -4.6816,3.08771 0,1.04615 1.1241,1.87229 3.3731,2.47709 2.2489,0.58844 6.7697,1.15229 13.5625,1.69169 l 4.3378,0.34349 c 8.9958,0.68654 15.3751,1.6582 19.1387,2.9168 3.8094,1.2423 5.7149,2.9836 5.7149,5.223 0,2.54994 -2.8459,4.56887 -8.5372,6.05635 -5.6453,1.48747 -13.4241,2.23126 -23.3379,2.23126 -4.1307,0 -8.4454,-0.14738 -12.9433,-0.44165 -4.452,-0.27783 -9.1564,-0.70289 -14.1133,-1.27498 v -4.65844 c 4.6815,0.86633 9.2941,1.5211 13.8379,1.96242 4.5438,0.42502 9.0421,0.63754 13.4941,0.63754 5.9666,0 10.5568,-0.36001 13.7696,-1.07915 3.2127,-0.73559 4.8183,-1.76562 4.8183,-3.08965 0,-1.22594 -1.171,-2.16504 -3.5117,-2.81884 -2.2948,-0.65384 -7.3664,-1.28468 -15.2148,-1.88949 l -4.4063,-0.36678 c -7.8484,-0.58845 -13.5157,-1.48832 -17.0039,-2.69788 -3.4881,-1.22595 -5.2324,-2.90023 -5.2324,-5.02521 0,-2.58264 2.5705,-4.57763 7.7109,-5.98336 5.1405,-1.40574 12.4378,-2.10842 21.8926,-2.10842 z m 131.4258,0 c 11.1529,0 19.4826,1.03007 24.9902,3.08965 5.5077,2.05957 8.2618,5.18031 8.2618,9.36486 v 15.66893 h -12.668 v -4.1688 c -2.8915,1.6673 -6.4943,2.90122 -10.8086,3.70219 -4.3143,0.78459 -9.592,1.17707 -15.834,1.17707 -7.8943,0 -14.1818,-0.78496 -18.8633,-2.35418 -4.6356,-1.58557 -6.9531,-3.70211 -6.9531,-6.35014 0,-3.08936 2.8908,-5.41842 8.6738,-6.98765 5.8289,-1.5692 14.5033,-2.35418 26.0235,-2.35418 h 17.7617 v -0.44166 c 0,-2.07592 -1.9259,-3.67647 -5.7813,-4.80433 -3.8094,-1.14422 -9.1809,-1.7167 -16.1113,-1.7167 -4.4061,0 -8.6964,0.18847 -12.873,0.56456 -4.1767,0.3761 -8.1935,0.93977 -12.0489,1.69171 v -4.1688 c 4.6356,-0.63749 9.1339,-1.11227 13.4941,-1.42284 4.3603,-0.32696 8.6057,-0.48969 12.7364,-0.48969 z m 96.5898,0 c 8.8582,0 15.5598,0.98026 20.1035,2.94179 4.5439,1.94515 6.8165,4.81414 6.8165,8.60636 v 16.57529 h -12.668 v -16.42744 c 0,-2.59897 -1.4239,-4.54417 -4.2695,-5.83549 -2.8456,-1.29135 -7.1136,-1.93749 -12.8047,-1.93749 -6.8386,0 -12.2307,0.77633 -16.1777,2.32922 -3.9473,1.55286 -5.922,3.6694 -5.922,6.35012 v 15.52108 h -12.7362 v -27.46096 h 12.7362 v 4.26483 c 3.0293,-1.65097 6.587,-2.88492 10.672,-3.7022 4.1306,-0.8173 8.88,-1.22511 14.2499,-1.22511 z m -291.6289,0.66248 h 12.668 v 27.46096 h -12.668 z m 203.0254,13.65653 c -10.235,0 -17.3263,0.41633 -21.2734,1.25009 -3.9472,0.83364 -5.92,2.25614 -5.92,4.26672 0,1.60187 1.4689,2.87699 4.4063,3.82501 2.9833,0.93172 7.0207,1.39795 12.1152,1.39795 7.0223,0 12.6447,-0.88263 16.8672,-2.64799 4.2684,-1.7817 6.4024,-4.1452 6.4024,-7.08751 v -1.00427 z M 654.657,209.845 h 11.7852 v 12.3047 c 0,1.99317 -0.1508,3.55299 -0.4532,4.67956 -0.3019,1.03995 -0.9078,1.86469 -1.8144,2.47131 -0.9066,0.51996 -2.1141,0.86551 -3.625,1.03883 -1.5109,0.0869 -3.4751,0.13044 -5.8926,0.13044 z m 144.1856,0 h 11.6835 c 0.094,1.41661 0.2586,2.7127 0.5118,3.85581 0.5036,1.73316 1.159,3.33689 1.9648,4.81009 0.9066,1.38656 1.9632,2.64278 3.1719,3.76938 1.3095,1.03993 2.7195,2.08046 4.2305,3.12034 -2.0146,0 -4.2806,-0.21768 -6.7989,-0.65096 -2.5182,-0.51993 -4.8855,-1.4726 -7.1015,-2.85915 -2.2161,-1.3866 -4.079,-3.29388 -5.5899,-5.72032 -1.0781,-1.73139 -1.7634,-3.84379 -2.0722,-6.32519 z m 97.5742,0 h 36.0996 v 14.90466 c -7.2525,0 -13.3455,-0.69302 -18.2813,-2.07958 -4.9357,-1.38654 -8.9156,-3.29191 -11.9375,-5.71839 -2.5918,-2.08114 -4.5487,-4.4518 -5.8808,-7.10669 z m 122.8282,0 h 11.7851 v 12.3047 c 0,1.99317 -0.1508,3.55299 -0.4531,4.67956 -0.3024,1.03995 -0.9079,1.86469 -1.8145,2.47131 -0.9066,0.51996 -2.114,0.86551 -3.6251,1.03883 -1.5108,0.0869 -3.4749,0.13044 -5.8924,0.13044 z m 139.4589,0 h 11.7851 v 12.3047 c 0,1.99317 -0.1508,3.55299 -0.4531,4.67956 -0.3023,1.03995 -0.9078,1.86469 -1.8144,2.47131 -0.9066,0.51996 -2.114,0.86551 -3.6251,1.03883 -1.5109,0.0869 -3.475,0.13044 -5.8925,0.13044 z M 492.534,248.7984 c 6.9503,0.77993 12.3899,3.29243 16.3183,7.53873 4.0292,4.24634 6.043,9.5768 6.043,15.98963 0,3.46636 -0.302,6.50006 -0.9062,9.09984 -0.5037,2.5998 -1.0578,4.46126 -1.6622,5.58784 -0.8058,-1.12658 -2.2655,-2.29503 -4.3808,-3.50826 -2.1153,-1.21321 -4.2304,-1.95019 -6.3457,-2.21015 0.2014,-0.86658 0.4517,-2.03692 0.7539,-3.51012 0.3023,-1.47325 0.4531,-3.29268 0.4531,-5.45915 0,-5.02629 -0.9056,-9.48997 -2.7187,-13.38966 -1.8131,-3.89969 -4.3314,-7.27895 -7.5547,-10.1387 z"
   id="text883"
   inkscape:connector-curvature="0" />





















<path
   style="fill:#f39208;fill-opacity:1;stroke:#f39208;stroke-width:1px;stroke-linecap:butt;stroke-linejoin:miter;stroke-opacity:1"
   d="m 115.08772,242.45614 c 0,0 73.60499,-3.50021 75.52632,-61.14035 C 194.21052,73.42105 118.68421,59.035088 118.68421,59.035088 Z"
   id="path917"
   inkscape:connector-curvature="0"
   sodipodi:nodetypes="cscc" /><rect
   style="opacity:1;fill:#ffffff;fill-opacity:1;stroke:#f39208;stroke-width:2.04581761;stroke-linejoin:round;stroke-miterlimit:4;stroke-dasharray:none;stroke-opacity:1;paint-order:stroke fill markers"
   id="rect919"
   width="72.184013"
   height="21.83313"
   x="114.96062"
   y="149.60979"
   ry="10.916565" /><rect
   style="opacity:1;fill:#ffffff;fill-opacity:1;stroke:#f39208;stroke-width:1.6552285;stroke-linejoin:round;stroke-miterlimit:4;stroke-dasharray:none;stroke-opacity:1;paint-order:stroke fill markers"
   id="rect921"
   width="90.557076"
   height="10.430738"
   x="10.467078"
   y="-167.74167"
   transform="scale(1,-1)" /></svg>
