<?xml version="1.0" encoding="UTF-8" standalone="no"?>
<!-- Generator: Adobe Illustrator 19.0.0, SVG Export Plug-In . SVG Version: 6.00 Build 0)  -->

<svg
   xmlns:dc="http://purl.org/dc/elements/1.1/"
   xmlns:cc="http://creativecommons.org/ns#"
   xmlns:rdf="http://www.w3.org/1999/02/22-rdf-syntax-ns#"
   xmlns:svg="http://www.w3.org/2000/svg"
   xmlns="http://www.w3.org/2000/svg"
   xmlns:sodipodi="http://sodipodi.sourceforge.net/DTD/sodipodi-0.dtd"
   xmlns:inkscape="http://www.inkscape.org/namespaces/inkscape"
   version="1.1"
   id="Calque_1"
   x="0px"
   y="0px"
   viewBox="390 76 1230 300"
   style="enable-background:new 390 76 1230 300;"
   xml:space="preserve"
   sodipodi:docname="fresh-alt.svg"
   inkscape:version="0.92.3 (2405546, 2018-03-11)"><metadata
   id="metadata23"><rdf:RDF><cc:Work
       rdf:about=""><dc:format>image/svg+xml</dc:format><dc:type
         rdf:resource="http://purl.org/dc/dcmitype/StillImage" /><dc:title></dc:title></cc:Work></rdf:RDF></metadata><defs
   id="defs21" /><sodipodi:namedview
   pagecolor="#ffffff"
   bordercolor="#666666"
   borderopacity="1"
   objecttolerance="10"
   gridtolerance="10"
   guidetolerance="10"
   inkscape:pageopacity="0"
   inkscape:pageshadow="2"
   inkscape:window-width="1299"
   inkscape:window-height="713"
   id="namedview19"
   showgrid="false"
   inkscape:snap-global="false"
   inkscape:zoom="0.27804878"
   inkscape:cx="615"
   inkscape:cy="150"
   inkscape:window-x="67"
   inkscape:window-y="27"
   inkscape:window-maximized="1"
   inkscape:current-layer="Calque_1" />
<style
   type="text/css"
   id="style2">
	.st0{fill:#344358;}
	.st1{fill:#F39208;}
	.st2{fill:#FCC010;}
	.st3{fill:#F49619;}
	.st4{fill:#EC630E;}
</style>
<path
   style="font-style:normal;font-weight:normal;font-size:76.58779907px;line-height:1.25;font-family:sans-serif;letter-spacing:0px;word-spacing:0px;fill:#f39208;fill-opacity:1;stroke:none;stroke-width:6.83604383"
   d="m 670.34815,74.03111 c -6.1185,0 -11.88273,1.20662 -17.29184,3.619097 -5.40911,2.323076 -10.10862,5.494181 -14.09893,9.514933 -3.99034,4.02071 -7.18279,8.756809 -9.57698,14.20709 -2.30553,5.45027 -3.4594,11.25721 -3.4594,17.42232 0,6.07575 1.15387,11.83929 3.4594,17.28961 2.39419,5.36095 5.58664,10.05174 9.57698,14.07246 3.99031,4.02072 8.68982,7.2372 14.09893,9.64964 5.40911,2.32303 11.17334,3.48439 17.29184,3.48439 6.02982,0 11.7049,-1.16136 17.02533,-3.48439 5.40911,-2.41244 10.10862,-5.62892 14.09895,-9.64964 3.99033,-4.02072 7.13732,-8.71151 9.44285,-14.07246 2.3942,-5.45032 3.59179,-11.21386 3.59179,-17.28961 0,-6.16511 -1.19759,-11.97205 -3.59179,-17.42232 -2.30553,-5.450281 -5.45252,-10.18638 -9.44285,-14.20709 -3.99033,-4.020752 -8.68984,-7.191857 -14.09895,-9.514933 -5.32043,-2.412477 -10.99551,-3.619097 -17.02533,-3.619097 z m 304.86037,0 c -6.11843,0 -11.88271,1.20662 -17.29177,3.619097 -5.40915,2.323076 -10.10859,5.494181 -14.09892,9.514933 -3.99034,4.02071 -7.18283,8.756809 -9.57696,14.20709 -2.30555,5.45027 -3.45773,11.25721 -3.45773,17.42232 0,6.07575 1.15218,11.83929 3.45773,17.28961 2.39413,5.36095 5.58662,10.05174 9.57696,14.07246 3.99033,4.02072 8.68977,7.2372 14.09892,9.64964 5.40906,2.32303 11.17334,3.48439 17.29177,3.48439 6.02987,0 11.70497,-1.16136 17.02538,-3.48439 5.40907,-2.41244 10.1086,-5.62892 14.0989,-9.64964 3.9904,-4.02072 7.1391,-8.71151 9.4446,-14.07246 2.3942,-5.45032 3.5901,-11.21386 3.5901,-17.28961 0,-6.16511 -1.1959,-11.97205 -3.5901,-17.42232 -2.3055,-5.450281 -5.4542,-10.18638 -9.4446,-14.20709 -3.9903,-4.020752 -8.68983,-7.191857 -14.0989,-9.514933 C 986.91349,75.23773 981.23839,74.03111 975.20852,74.03111 Z M 678.7267,86.630617 c 3.54696,0.982804 6.78312,2.50047 9.70936,4.55547 3.01491,1.965722 5.5867,4.379012 7.71488,7.238206 2.21684,2.769847 3.94594,5.895707 5.18737,9.380317 1.24144,3.48463 1.8621,7.1479 1.8621,10.98994 0,3.84196 -0.62066,7.50527 -1.8621,10.98987 -1.24143,3.48464 -2.97053,6.65776 -5.18737,9.51692 -2.12818,2.76983 -4.69997,5.18119 -7.71488,7.23622 -2.92624,2.05503 -6.1624,3.52935 -9.70936,4.4229 4.16769,-4.11006 7.44927,-8.93475 9.84347,-14.47442 2.48287,-5.53959 3.72419,-11.43709 3.72419,-17.69149 0,-6.2545 -1.24132,-12.14994 -3.72419,-17.68958 -2.3942,-5.539675 -5.67578,-10.364322 -9.84347,-14.474353 z m 304.86039,0 c 3.54701,0.982804 6.78493,2.50047 9.71112,4.55547 3.01494,1.965722 5.58663,4.379012 7.71479,7.238206 2.2169,2.769847 3.946,5.895707 5.1874,9.380317 1.2415,3.48463 1.8621,7.1479 1.8621,10.98994 0,3.84196 -0.6206,7.50527 -1.8621,10.98987 -1.2414,3.48464 -2.9705,6.65776 -5.1874,9.51692 -2.12816,2.76983 -4.69985,5.18119 -7.71479,7.23622 -2.92619,2.05503 -6.16411,3.52935 -9.71112,4.4229 4.16763,-4.11006 7.44931,-8.93475 9.84353,-14.47442 2.48286,-5.53959 3.72412,-11.43709 3.72412,-17.69149 0,-6.2545 -1.24126,-12.14994 -3.72412,-17.68958 -2.39422,-5.539675 -5.6759,-10.364322 -9.84353,-14.474353 z M 1390.07,93.866764 c -4.2564,0 -7.7145,0.401725 -10.3748,1.205724 -2.6603,0.804163 -4.7443,1.965525 -6.2516,3.484447 -1.5075,1.518955 -2.5285,3.485425 -3.0606,5.897855 -0.532,2.32308 -0.7978,5.0041 -0.7978,8.04194 v 110.4554 h -25.4262 c -0.4656,-3.95503 -1.1658,-7.58094 -2.1063,-10.87506 -1.8622,-6.52252 -4.523,-12.0184 -7.9814,-16.48588 -3.3696,-4.46743 -7.4047,-8.04212 -12.1044,-10.72261 -4.6111,-2.76987 -9.7529,-4.86814 -15.428,-6.29779 -5.5864,-1.51891 -11.5727,-2.50316 -17.9572,-2.94987 -6.2959,-0.44673 -12.7682,-0.66919 -19.4188,-0.66919 -7.0052,0 -13.7887,0.53542 -20.3506,1.60763 -6.5618,1.07214 -12.6809,2.45796 -18.3561,4.1556 -5.5865,1.69764 -10.6409,3.61883 -15.1633,5.76322 -4.5224,2.14437 -8.2463,4.24272 -11.1725,6.29772 -0.5321,0.35767 -1.109,0.80423 -1.7298,1.34035 -0.5319,0.53608 -0.7977,1.16207 -0.7977,1.87686 0,0.7148 0.2219,1.38402 0.6654,2.00951 l 4.522,7.23817 c 0.7094,1.16151 1.4629,1.74219 2.2609,1.74219 0.4435,0 0.8875,-0.13388 1.3308,-0.40172 0.4434,-0.26816 0.9312,-0.58099 1.4633,-0.9384 1.1527,-0.7148 2.5706,-1.5179 4.2555,-2.41143 1.6847,-0.89343 3.4593,-1.69855 5.3215,-2.41336 1.8621,-0.80412 3.7677,-1.47343 5.7185,-2.00951 2.0396,-0.53607 3.9453,-0.80579 5.7187,-0.80579 1.5075,0 3.06,0.17904 4.6561,0.53655 1.6849,0.26816 3.1919,0.93925 4.522,2.01148 1.4188,0.98284 2.5727,2.50048 3.4594,4.55552 0.8868,2.05503 1.3291,4.82464 1.3291,8.30923 v 9.24771 c -1.0049,0.079 -2.0033,0.17904 -2.9986,0.28918 h -93.1683 v -2.83507 h 23.9425 c 1.8621,0 2.7923,-0.98226 2.7923,-2.94794 v -10.72268 c 0,-1.87632 -0.9302,-2.81332 -2.7923,-2.81332 h -23.9425 v -61.51839 c 0,-1.34025 -0.2218,-2.45631 -0.6653,-3.34983 -0.4433,-0.98283 -1.0186,-1.74266 -1.728,-2.27878 -0.6207,-0.53608 -1.3305,-0.89235 -2.1286,-1.07108 -0.7094,-0.26815 -1.3738,-0.40172 -1.9945,-0.40172 -1.6848,0 -3.6359,0.31058 -5.8527,0.93645 -2.2169,0.62548 -5.0108,1.56445 -8.3804,2.81534 l -73.421,27.34107 c -1.7736,0.7148 -2.882,1.74232 -3.3253,3.0826 -0.3548,1.3402 -0.533,2.6807 -0.533,4.02095 v 30.42367 h -13.8325 c -1.8621,0 -2.794,0.93695 -2.794,2.81331 v 10.72265 c 0,1.96572 0.9319,2.94793 2.794,2.94793 h 13.8325 v 2.83507 h -28.7309 v -28.16474 c 0,-3.21656 -0.2203,-5.98615 -0.6637,-8.30923 -0.4434,-2.32309 -1.3752,-4.24428 -2.7941,-5.76319 -1.4187,-1.51893 -3.4136,-2.63705 -5.9851,-3.35181 -2.4829,-0.80415 -5.7645,-1.20573 -9.8434,-1.20573 h -58.25788 c -4.25636,0 -7.71454,0.40173 -10.37479,1.20573 -2.66017,0.80412 -4.7442,1.96549 -6.25166,3.48448 -1.50746,1.51892 -2.52675,3.48537 -3.05878,5.89785 -0.53205,2.32305 -0.79952,5.00402 -0.79952,8.0419 v 28.16474 h -24.52014 c -0.17834,-1.14899 -0.3841,-2.27443 -0.61897,-3.37158 -0.88673,-4.55683 -2.21549,-8.75549 -3.98895,-12.59752 l 19.2863,-13.67054 c 2.21685,-1.60832 3.32529,-3.39571 3.32529,-5.36138 0,-1.34024 -0.53322,-2.63545 -1.5973,-3.88633 l -6.51648,-6.96893 c -1.15274,-1.1615 -2.43951,-1.74223 -3.85829,-1.74223 -0.79807,0 -1.68448,0.22223 -2.65987,0.66918 -0.88674,0.44676 -1.81686,1.16324 -2.79231,2.14612 l -14.49954,14.87627 c -4.079,-4.28877 -8.77851,-7.81819 -14.09895,-10.58799 -5.23177,-2.76984 -10.81766,-4.95875 -16.75882,-6.56703 -5.85247,-1.69764 -11.88247,-2.85901 -18.08965,-3.48444 -6.20717,-0.62545 -12.28087,-0.93848 -18.222,-0.93848 -6.65056,0 -13.30119,0.49017 -19.95175,1.47299 -6.65052,0.89354 -13.03544,2.41315 -19.15391,4.55754 -6.02983,2.055 -11.66121,4.73603 -16.89296,8.04197 -5.23176,3.30589 -9.79839,7.3707 -13.70004,12.19561 -3.81298,4.73552 -6.8271,10.27469 -9.04396,16.61847 -2.21685,6.25448 -3.32529,13.35857 -3.32529,21.31064 0,11.70475 2.21688,21.57847 6.65058,29.61987 4.43369,8.04146 10.28536,14.56289 17.55662,19.56644 -2.30552,2.1444 -4.60984,4.55768 -6.91535,7.23812 -2.30553,2.59117 -4.34582,5.53987 -6.11929,8.84583 -1.77348,3.30587 -3.23683,7.01247 -4.38959,11.12255 -1.06409,4.02071 -1.59559,8.48908 -1.59559,13.40327 0,4.55684 0.79725,9.38148 2.39339,14.47439 1.59612,5.09288 4.16791,9.73838 7.71487,13.93776 3.54696,4.28884 8.15904,7.81822 13.83416,10.58807 5.76379,2.7698 12.76933,4.15556 21.01603,4.15556 5.94113,0 11.57077,-0.3129 16.89121,-0.93834 5.40911,-0.53616 10.5964,-1.1621 15.56216,-1.87691 4.96573,-0.62544 9.84355,-1.24944 14.63194,-1.87487 4.78839,-0.53609 9.62076,-0.80579 14.49786,-0.80579 11.35024,0 17.86801,2.10034 19.55281,6.29977 0.17734,0.35728 0.44308,0.80423 0.79779,1.34027 0.35469,0.62548 1.15369,0.93847 2.3951,0.93847 h 9.84175 c 1.33012,0 2.21652,-0.31291 2.65988,-0.93847 0.53205,-0.62536 0.88696,-1.16082 1.0643,-1.60757 0.97541,-3.39528 1.90726,-6.96994 2.79399,-10.72262 0.97544,-3.75266 1.46322,-8.13046 1.46322,-13.13402 0,-5.62903 -0.97558,-10.63278 -2.92639,-15.01094 -1.95084,-4.37808 -4.56633,-8.08661 -7.84729,-11.12449 -3.19226,-2.94852 -6.87249,-5.18271 -11.04015,-6.70161 -4.16766,-1.60837 -8.42483,-2.41143 -12.76987,-2.41143 -4.52237,0 -8.82322,0.31291 -12.90225,0.93842 -3.99032,0.53609 -7.98002,1.16208 -11.97034,1.87683 -3.99032,0.62548 -8.06918,1.20615 -12.23684,1.74225 -4.16771,0.62546 -8.69061,0.93644 -13.56767,0.93644 -4.43367,0 -8.20134,-0.49016 -11.30496,-1.47296 -3.10355,-0.98287 -5.63163,-2.32335 -7.58248,-4.02098 -1.86214,-1.69763 -3.23631,-3.66414 -4.12307,-5.89786 -0.88675,-2.32311 -1.33079,-4.82495 -1.33079,-7.50542 v -1.2057 c 0,-0.4468 0.0456,-0.89359 0.13408,-1.34035 6.11848,2.05503 12.50336,3.57465 19.15392,4.55749 6.65056,0.89352 13.34491,1.34035 20.08414,1.34035 6.20715,0 12.54661,-0.35805 19.0198,-1.07305 6.47318,-0.71483 12.72521,-1.96474 18.75504,-3.75174 6.11851,-1.78699 11.83729,-4.24555 17.15773,-7.37279 3.76614,-2.21368 7.19256,-4.86091 10.29222,-7.92517 v 1.00178 h 40.38488 v 13.8943 c 0,3.1272 0.26751,5.8515 0.79953,8.17462 0.53202,2.32303 1.55131,4.24431 3.05877,5.76321 1.50746,1.51892 3.59144,2.68029 6.2517,3.48445 2.66025,0.80412 6.11843,1.20569 10.37471,1.20569 h 58.25786 c 4.079,0 7.3606,-0.3565 9.8435,-1.07111 2.5715,-0.80411 4.5663,-1.96548 5.9851,-3.4844 1.4189,-1.60831 2.3507,-3.52951 2.794,-5.76319 0.4434,-2.32316 0.6637,-5.00413 0.6637,-8.04201 v -14.16156 h 29.0593 c 0.5758,6.66536 1.9227,12.20008 4.0612,16.57493 3.015,5.98642 7.1375,10.49809 12.3692,13.53595 5.3205,3.03788 11.5725,4.95908 18.7551,5.76323 7.2712,0.89344 15.1195,1.34033 23.5435,1.34033 5.8525,0 11.7042,-0.35807 17.5566,-1.07306 5.8526,-0.62545 11.3947,-1.51915 16.6265,-2.68067 5.3204,-1.0722 10.242,-2.32211 14.7644,-3.75175 4.611,-1.42959 8.6024,-2.86067 11.972,-4.29023 0.5321,-0.17865 1.1527,-0.58025 1.8621,-1.20569 0.7093,-0.62545 1.0625,-1.83215 1.0625,-3.61907 v -10.31877 c 0,-1.16148 -0.4878,-1.74224 -1.4632,-1.74224 -0.532,0 -1.1964,0.13388 -1.9944,0.40172 -0.7981,0.17865 -1.6845,0.40131 -2.6599,0.66918 -0.8868,0.17865 -1.8623,0.40302 -2.9264,0.67114 -1.0641,0.17864 -2.0834,0.26738 -3.0588,0.26738 -4.345,0 -7.5829,-1.2952 -9.7111,-3.88637 -1.2168,-1.54596 -2.0624,-3.77431 -2.5533,-6.65612 h 44.1538 c 0.2815,1.09061 0.6,2.15102 0.9646,3.17164 1.5961,4.46752 3.7676,8.35517 6.5164,11.66108 2.8377,3.30592 6.1629,6.07556 9.9759,8.30924 3.813,2.23371 7.8918,4.06439 12.2369,5.49398 4.4337,1.34025 9.0457,2.32245 13.8341,2.94794 4.8771,0.62547 9.7095,0.93842 14.4978,0.93842 h 71.0278 c 4.2563,0 7.7145,-0.35649 10.3748,-1.07106 2.6602,-0.80416 4.7442,-1.96557 6.2517,-3.48448 1.5073,-1.51896 2.5267,-3.39683 3.0587,-5.63059 0.532,-2.32304 0.7978,-4.95884 0.7978,-7.90731 v -14.42886 h 24.7402 v 13.89433 c 0,3.12715 0.2658,5.85147 0.7978,8.17458 0.5321,2.32307 1.5531,4.2443 3.0605,5.76322 1.5074,1.51892 3.5914,2.68033 6.2517,3.48444 2.6602,0.80416 6.1184,1.20573 10.3748,1.20573 h 57.9913 c 4.079,0 7.3606,-0.35649 9.8435,-1.07106 2.5715,-0.80416 4.5664,-1.96557 5.9851,-3.48448 1.4188,-1.60832 2.3945,-3.52948 2.9264,-5.76319 0.5321,-2.32312 0.7978,-5.00415 0.7978,-8.04202 V 112.36257 c 0,-3.1272 -0.2658,-5.85153 -0.7978,-8.17462 -0.4432,-2.32303 -1.3735,-4.244271 -2.7922,-5.763223 -1.4188,-1.518923 -3.37,-2.637005 -5.8528,-3.351766 -2.4829,-0.804203 -5.7645,-1.205775 -9.8435,-1.205775 z m 55.8645,11.259196 c 2.1282,0 3.8572,0.0887 5.1873,0.26737 1.3303,0.0895 2.3932,0.44568 3.1913,1.07108 0.7981,0.53615 1.3312,1.38651 1.5972,2.54806 0.2662,1.16156 0.3989,2.72442 0.3989,4.69014 v 109.24967 h -10.3747 z m -989.60144,15.81466 c -4.25635,0 -7.71455,0.40173 -10.37477,1.2057 -2.66021,0.80415 -4.74421,2.01082 -6.25167,3.61914 -1.50746,1.51891 -2.52674,3.44007 -3.05879,5.76318 -0.53204,2.32304 -0.79779,5.04738 -0.79779,8.17462 v 155.06636 c 0,3.12719 0.26575,5.85153 0.79779,8.1746 0.53205,2.32308 1.55133,4.24427 3.05879,5.76324 1.50746,1.51891 3.59146,2.68027 6.25167,3.48444 2.66022,0.80412 6.11842,1.20569 10.37477,1.20569 h 62.64745 c 6.47319,0 12.94724,-0.44684 19.42043,-1.34036 6.56188,-0.89344 12.8576,-2.63552 18.88743,-5.22664 6.1185,-2.68048 11.79357,-6.34375 17.02534,-10.98991 5.32043,-4.73551 9.88706,-10.90067 13.70005,-18.49533 3.90165,-7.59472 6.96121,-16.79716 9.17806,-27.60842 2.30552,-10.90063 3.45768,-23.81157 3.45768,-38.73292 0,-12.68763 -1.06472,-23.72264 -3.19289,-33.10435 -2.12818,-9.38167 -5.05315,-17.42271 -8.77746,-24.12394 -3.72428,-6.70119 -8.15806,-12.15181 -13.30115,-16.35125 -5.05441,-4.28871 -10.55289,-7.63904 -16.49404,-10.0514 -5.94115,-2.41248 -12.19317,-4.06597 -18.75504,-4.95945 -6.56187,-0.98284 -13.16706,-1.473 -19.81761,-1.473 z m 57.06118,18.49537 h 10.37475 v 155.46623 h -10.37475 z m 21.68142,0.26738 c 8.24667,0.0895 15.29593,1.91999 21.14841,5.49394 5.94115,3.574 10.81898,8.57775 14.63195,15.01091 3.81298,6.43318 6.60509,14.2065 8.37856,23.32013 1.77348,9.11363 2.65988,19.21173 2.65988,30.29103 0,11.16868 -0.8864,21.66632 -2.65988,31.49474 -1.77347,9.73907 -4.56558,18.27226 -8.37856,25.59893 -3.7243,7.32664 -8.5584,13.13356 -14.49955,17.42229 -5.94115,4.19939 -13.03414,6.34503 -21.28081,6.43439 z m 600.80934,8.4439 c 1.5074,0 2.4393,0.58069 2.7939,1.7422 0.4435,1.0722 0.6655,2.5013 0.6655,4.2883 v 68.77447 h -10.3748 v -72.66092 l 2.1268,-0.93836 c 0.9754,-0.44676 1.8636,-0.75975 2.6617,-0.93843 0.8867,-0.17864 1.5948,-0.26737 2.1269,-0.26737 z m -494.40014,28.01032 c -4.25635,0 -7.71627,0.40177 -10.37648,1.20569 -2.66021,0.80415 -4.7425,1.96552 -6.24996,3.48447 -1.50746,1.51892 -2.52846,3.48541 -3.0605,5.89786 -0.53204,2.32308 -0.7978,5.00405 -0.7978,8.04197 v 99.98219 c 0,3.1272 0.26575,5.85149 0.7978,8.17461 0.53204,2.32307 1.55304,4.24427 3.0605,5.76323 1.50746,1.51891 3.58975,2.68028 6.24996,3.48444 2.66021,0.80412 6.12013,1.2057 10.37648,1.2057 h 58.25786 c 4.079,0 7.36061,-0.35651 9.84348,-1.07108 2.57153,-0.80411 4.56638,-1.96551 5.98517,-3.48448 1.41878,-1.60827 2.34891,-3.52946 2.79229,-5.76318 0.44336,-2.32309 0.66539,-5.0041 0.66539,-8.04202 V 194.78758 c 0,-3.2166 -0.22202,-5.9862 -0.66539,-8.30924 -0.44338,-2.32315 -1.37351,-4.2443 -2.79229,-5.76322 -1.41879,-1.51893 -3.41364,-2.63706 -5.98517,-3.35184 -2.48287,-0.80412 -5.76448,-1.20569 -9.84348,-1.20569 z m 55.86448,11.25915 c 2.12818,0 3.85727,0.0887 5.18738,0.26737 1.33011,0.0895 2.39311,0.44758 3.19118,1.07303 0.79806,0.53611 1.33129,1.38444 1.59731,2.546 0.26602,1.16156 0.39889,2.72453 0.39889,4.69021 v 97.56863 c 0,2.05506 -0.13288,3.66327 -0.39889,4.82482 -0.26601,1.0722 -0.79925,1.92256 -1.59731,2.54801 -0.79807,0.53607 -1.86107,0.89238 -3.19118,1.07107 -1.33011,0.0895 -3.0592,0.13426 -5.18738,0.13426 z m 304.86036,0 c 2.1282,0 3.8574,0.0887 5.1874,0.26737 1.3301,0.0895 2.3931,0.44758 3.1912,1.07303 0.798,0.53611 1.3313,1.38444 1.5973,2.546 0.2662,1.16156 0.3989,2.72453 0.3989,4.69021 v 26.95901 h -10.3748 z m 308.5847,3.7517 c 2.3055,0.80416 4.7882,2.05612 7.4483,3.75376 2.6603,1.60823 5.0992,4.01962 7.316,7.23614 2.3055,3.12728 4.213,7.19205 5.7204,12.19568 0.7824,2.55041 1.3568,5.42206 1.7331,8.59826 h -10.2424 c -0.2199,-2.38816 -0.529,-4.63347 -0.9353,-6.72144 -0.8867,-4.64619 -1.9515,-8.62241 -3.1929,-11.92833 -1.2413,-3.30595 -2.6156,-6.03026 -4.1231,-8.17461 -1.4188,-2.14436 -2.6601,-3.79791 -3.7241,-4.95946 z m -460.48356,5.76326 c -1.77347,0.35728 -3.99032,1.29635 -6.65056,2.81526 -2.57154,1.51895 -5.05417,3.84172 -7.44836,6.96892 -2.39419,3.03792 -4.47819,6.96885 -6.25169,11.79372 -1.6848,4.73551 -2.52749,10.45379 -2.52749,17.15506 0,6.70115 0.70979,12.46472 2.12858,17.28956 1.4188,4.82492 3.23704,8.84446 5.4539,12.06101 2.21685,3.12724 4.65577,5.49528 7.31597,7.10355 2.74891,1.60829 5.40811,2.59057 7.97965,2.94794 -4.25633,0 -8.42433,-0.71457 -12.50332,-2.14412 -3.99036,-1.51893 -7.53597,-3.8417 -10.63956,-6.96893 -3.10358,-3.12723 -5.63166,-7.19204 -7.58248,-12.1956 -1.86217,-5.0036 -2.79229,-11.03486 -2.79229,-18.09341 0,-7.05864 1.10846,-13.04464 3.32528,-17.95888 2.21685,-4.91418 4.96523,-8.89046 8.24619,-11.92829 3.3696,-3.12723 7.00438,-5.36142 10.90603,-6.70163 3.90165,-1.42959 7.58188,-2.14416 11.04015,-2.14416 z m 11.30669,6.70162 c 2.12815,0 4.21218,0.26777 6.25166,0.80381 2.12819,0.53612 4.07759,1.47307 5.85107,2.81335 l -8.51267,8.8457 c -0.79806,0.80421 -1.1967,1.74314 -1.1967,2.81534 0,0.89348 0.22193,1.56271 0.66541,2.0095 l 2.65991,2.94988 c 0.70939,0.89351 1.6412,1.34031 2.79399,1.34031 0.70939,0 1.41749,-0.22457 2.12685,-0.67117 l 8.9133,-6.2977 c 1.50746,4.37811 2.261,9.91723 2.261,16.61847 0,6.70119 -0.62066,12.19509 -1.8621,16.48385 -1.24145,4.19944 -2.8831,7.54968 -4.92261,10.05152 -1.95081,2.41243 -4.25513,4.11116 -6.91534,5.09404 -2.66024,0.89344 -5.36489,1.34031 -8.11377,1.34031 -2.92625,0 -5.7638,-0.35805 -8.51267,-1.07309 -2.7489,-0.71476 -5.18781,-2.18912 -7.316,-4.42283 -2.12815,-2.23379 -3.85724,-5.45016 -5.18735,-9.64959 -1.24145,-4.2888 -1.86211,-9.96181 -1.86211,-17.02036 0,-7.05864 0.79727,-12.68837 2.39339,-16.88776 1.59614,-4.2888 3.54724,-7.54852 5.85277,-9.78223 2.39419,-2.23376 4.87683,-3.6648 7.44839,-4.29029 2.6602,-0.71478 5.0554,-1.07106 7.18358,-1.07106 z m 256.71077,26.45219 h 11.1519 v 5.89191 h -11.1519 z m -190.48528,1.59377 h 13.87884 l 34.48398,37.74298 h -12.72685 l -8.24274,-9.68321 h -40.78721 l -8.24274,9.68321 h -12.90914 z m 289.45478,1.38978 h 11.2121 v 8.04003 h 22.9709 v 3.61514 h -22.9709 v 15.36919 c 0,2.30895 0.7488,3.79139 2.2437,4.44868 1.5354,0.65726 4.6261,0.98587 9.2727,0.98587 h 11.4545 v 3.89429 h -11.4545 c -8.6062,0 -14.5453,-0.66623 -17.818,-1.99759 -3.2727,-1.34825 -4.9105,-3.79205 -4.9105,-7.33125 v -15.36919 h -8.1809 v -3.61514 h 8.1809 z m 203.6386,0 h 11.2121 v 8.04003 h 22.9692 v 3.61514 h -22.9692 v 15.36919 c 0,2.30895 0.7471,3.79139 2.242,4.44868 1.5354,0.65726 4.6261,0.98587 9.2727,0.98587 h 11.4545 v 3.89429 h -11.4545 c -8.6062,0 -14.5452,-0.66623 -17.818,-1.99759 -3.2728,-1.34825 -4.9088,-3.79205 -4.9088,-7.33125 v -15.36919 h -8.1827 v -3.61514 h 8.1827 z m -486.18486,3.6409 -16.60585,18.78242 h 33.27347 z m 75.69746,3.71609 c 4.1213,0 8.0004,0.12531 11.6369,0.3783 3.6363,0.25258 6.9893,0.6328 10.0601,1.1384 v 4.3991 c -3.1516,-0.6741 -6.4238,-1.17942 -9.8178,-1.51652 -3.3939,-0.33703 -6.9103,-0.5068 -10.5466,-0.5068 -5.5354,0 -9.6966,0.35533 -12.4845,1.06313 -2.7475,0.70783 -4.12133,1.76785 -4.12133,3.18351 0,1.07863 0.98957,1.93041 2.96933,2.55399 1.9799,0.60668 5.9596,1.18806 11.9394,1.74422 l 3.8188,0.35418 c 7.9192,0.70782 13.535,1.70962 16.8482,3.00732 3.3535,1.28084 5.0309,3.07617 5.0309,5.38508 0,2.6291 -2.5052,4.71064 -7.5154,6.24427 -4.9697,1.53367 -11.8176,2.30054 -20.5449,2.30054 -3.6364,0 -7.4347,-0.15177 -11.39434,-0.45536 -3.9192,-0.28644 -8.06069,-0.72467 -12.42428,-1.31454 v -4.80305 c 4.12124,0.89325 8.18182,1.56831 12.18184,2.02336 3.99998,0.43819 7.95998,0.65732 11.87918,0.65732 5.2525,0 9.2934,-0.3709 12.1217,-1.11264 2.8283,-0.75842 4.2417,-1.82039 4.2417,-3.18553 0,-1.264 -1.0308,-2.23224 -3.0914,-2.90633 -2.0203,-0.67413 -6.485,-1.32456 -13.394,-1.94813 l -3.879,-0.3783 c -6.90912,-0.60671 -11.89818,-1.53449 -14.96893,-2.78159 -3.07074,-1.264 -4.60621,-2.99027 -4.60621,-5.18119 0,-2.66276 2.26279,-4.7197 6.7881,-6.16903 4.5253,-1.44937 10.94934,-2.17387 19.27254,-2.17387 z m 64.7279,0 c 4.1213,0 8.0005,0.12531 11.6368,0.3783 3.6364,0.25258 6.9894,0.6328 10.0601,1.1384 v 4.3991 c -3.1515,-0.6741 -6.4237,-1.17942 -9.8176,-1.51652 -3.394,-0.33703 -6.9104,-0.5068 -10.5467,-0.5068 -5.5354,0 -9.6965,0.35533 -12.4844,1.06313 -2.7475,0.70783 -4.1215,1.76785 -4.1215,3.18351 0,1.07863 0.9896,1.93041 2.9695,2.55399 1.9797,0.60668 5.9595,1.18806 11.9394,1.74422 l 3.8186,0.35418 c 7.9193,0.70782 13.5352,1.70962 16.8483,3.00732 3.3536,1.28084 5.031,3.07617 5.031,5.38508 0,2.6291 -2.5054,4.71064 -7.5155,6.24427 -4.9697,1.53367 -11.8176,2.30054 -20.5449,2.30054 -3.6364,0 -7.4348,-0.15177 -11.3944,-0.45536 -3.9192,-0.28644 -8.0606,-0.72467 -12.4242,-1.31454 v -4.80305 c 4.1212,0.89325 8.1818,1.56831 12.1818,2.02336 4,0.43819 7.96,0.65732 11.8793,0.65732 5.2525,0 9.2916,-0.3709 12.1198,-1.11264 2.8283,-0.75842 4.2435,-1.82039 4.2435,-3.18553 0,-1.264 -1.0308,-2.23224 -3.0915,-2.90633 -2.0201,-0.67413 -6.4848,-1.32456 -13.3939,-1.94813 l -3.879,-0.3783 c -6.9091,-0.60671 -11.8982,-1.53449 -14.969,-2.78159 -3.0706,-1.264 -4.6062,-2.99027 -4.6062,-5.18119 0,-2.66276 2.2629,-4.7197 6.7881,-6.16903 4.5253,-1.44937 10.9494,-2.17387 19.2726,-2.17387 z m 99.1517,0 c 4.1213,0 8.0004,0.12531 11.6368,0.3783 3.6364,0.25258 6.9894,0.6328 10.0601,1.1384 v 4.3991 c -3.1515,-0.6741 -6.4237,-1.17942 -9.8177,-1.51652 -3.3939,-0.33703 -6.9103,-0.5068 -10.5467,-0.5068 -5.5353,0 -9.6965,0.35533 -12.4844,1.06313 -2.7475,0.70783 -4.1213,1.76785 -4.1213,3.18351 0,1.07863 0.9895,1.93041 2.9694,2.55399 1.9797,0.60668 5.9595,1.18806 11.9393,1.74422 l 3.8188,0.35418 c 7.9192,0.70782 13.535,1.70962 16.8482,3.00732 3.3535,1.28084 5.031,3.07617 5.031,5.38508 0,2.6291 -2.5054,4.71064 -7.5155,6.24427 -4.9697,1.53367 -11.8176,2.30054 -20.5449,2.30054 -3.6364,0 -7.4347,-0.15177 -11.3943,-0.45536 -3.9192,-0.28644 -8.0606,-0.72467 -12.4243,-1.31454 v -4.80305 c 4.1212,0.89325 8.1818,1.56831 12.1818,2.02336 4,0.43819 7.96,0.65732 11.8792,0.65732 5.2525,0 9.2934,-0.3709 12.1217,-1.11264 2.8282,-0.75842 4.2417,-1.82039 4.2417,-3.18553 0,-1.264 -1.0309,-2.23224 -3.0915,-2.90633 -2.0202,-0.67413 -6.4848,-1.32456 -13.3939,-1.94813 l -3.879,-0.3783 c -6.9091,-0.60671 -11.8982,-1.53449 -14.9689,-2.78159 -3.0708,-1.264 -4.6062,-2.99027 -4.6062,-5.18119 0,-2.66276 2.2628,-4.7197 6.788,-6.16903 4.5254,-1.44937 10.9493,-2.17387 19.2726,-2.17387 z m 115.6974,0 c 9.8181,0 17.151,1.062 21.9994,3.18554 4.8485,2.1235 7.273,5.34107 7.273,9.65547 v 16.1552 h -11.1518 v -4.29812 c -2.5455,1.719 -5.7171,2.99125 -9.5151,3.81708 -3.7981,0.80891 -8.4441,1.21361 -13.9391,1.21361 -6.9495,0 -12.4846,-0.80935 -16.6058,-2.42728 -4.0808,-1.63474 -6.121,-3.81701 -6.121,-6.54719 0,-3.18522 2.5449,-5.5866 7.6358,-7.20453 5.1313,-1.6179 12.7676,-2.42723 22.9091,-2.42723 h 15.6361 v -0.45536 c 0,-2.14036 -1.6955,-3.79063 -5.0895,-4.95342 -3.3536,-1.17974 -8.0821,-1.76999 -14.1831,-1.76999 -3.8788,0 -7.6557,0.1942 -11.3325,0.58203 -3.6768,0.38765 -7.2129,0.96895 -10.6069,1.74424 v -4.29818 c 4.0808,-0.65729 8.0408,-1.14678 11.8792,-1.467 3.8385,-0.33705 7.5758,-0.50487 11.2122,-0.50487 z m 85.0303,0 c 7.7981,0 13.6976,1.01067 17.6976,3.03309 4.0001,2.00549 6.0007,4.96355 6.0007,8.87345 v 17.08967 h -11.1519 v -16.93722 c 0,-2.67966 -1.2535,-4.68523 -3.7585,-6.01662 -2.5052,-1.33141 -6.2623,-1.9976 -11.2723,-1.9976 -6.0202,0 -10.767,0.80042 -14.2417,2.40147 -3.4749,1.60107 -5.2132,3.7833 -5.2132,6.54726 v 16.00271 h -11.2121 v -28.31317 h 11.2121 v 4.39715 c 2.6667,-1.70219 5.7987,-2.97444 9.3947,-3.81709 3.6363,-0.84261 7.8173,-1.2631 12.5446,-1.2631 z m -256.728,0.68304 h 11.1519 v 28.31317 h -11.1519 z m 178.7282,14.08038 c -9.0101,0 -15.2528,0.42923 -18.7275,1.28885 -3.4748,0.8595 -5.2115,2.32615 -5.2115,4.39917 0,1.65155 1.2931,2.96627 3.879,3.9437 2.6262,0.96065 6.1805,1.44135 10.6653,1.44135 6.1819,0 11.1314,-0.91002 14.8486,-2.73017 3.7575,-1.83698 5.6362,-4.27386 5.6362,-7.30749 v -1.03541 z m -294.8468,25.686 h 10.3748 v 12.68658 c 0,2.05504 -0.1327,3.66324 -0.3989,4.8248 -0.2659,1.07219 -0.7993,1.92255 -1.5973,2.548 -0.7981,0.53611 -1.8611,0.89238 -3.1912,1.07106 -1.33,0.0895 -3.0592,0.13427 -5.1874,0.13427 z m 126.9301,0 h 10.2853 c 0.083,1.46059 0.2276,2.79689 0.4505,3.97546 0.4434,1.78696 1.0203,3.4405 1.7297,4.95942 0.7981,1.42956 1.7283,2.7248 2.7923,3.88633 1.1528,1.07224 2.3941,2.14505 3.7242,3.21721 -1.7735,0 -3.7683,-0.22456 -5.9852,-0.67121 -2.2168,-0.53603 -4.3008,-1.51829 -6.2516,-2.94785 -1.9509,-1.42964 -3.5909,-3.39609 -4.921,-5.8979 -0.949,-1.78507 -1.5523,-3.96303 -1.8242,-6.52146 z m 85.897,0 h 31.7793 v 15.36721 c -6.3845,0 -11.7483,-0.71452 -16.0934,-2.14412 -4.3451,-1.42952 -7.8487,-3.39406 -10.5089,-5.89583 -2.2816,-2.14576 -4.0044,-4.58999 -5.177,-7.32726 z m 108.1286,0 h 10.3746 v 12.68658 c 0,2.05504 -0.1327,3.66324 -0.3987,4.8248 -0.2663,1.07219 -0.7994,1.92255 -1.5975,2.548 -0.798,0.53611 -1.861,0.89238 -3.1912,1.07106 -1.3299,0.0895 -3.059,0.13427 -5.1872,0.13427 z m 122.7691,0 h 10.3747 v 12.68658 c 0,2.05504 -0.1328,3.66324 -0.3989,4.8248 -0.2661,1.07219 -0.7991,1.92255 -1.5972,2.548 -0.7981,0.53611 -1.861,0.89238 -3.1913,1.07106 -1.3301,0.0895 -3.0591,0.13427 -5.1873,0.13427 z m -586.44558,40.16221 c 6.1185,0.80412 10.90719,3.39458 14.36546,7.77268 3.54694,4.37816 5.31977,9.87405 5.31977,16.48588 0,3.57396 -0.26584,6.70182 -0.79779,9.38226 -0.44339,2.68047 -0.93116,4.59972 -1.46321,5.76128 -0.7094,-1.16156 -1.9944,-2.36625 -3.85657,-3.61716 -1.86214,-1.25084 -3.72411,-2.01066 -5.58629,-2.27871 0.17734,-0.89348 0.39767,-2.10018 0.66368,-3.6191 0.26618,-1.51896 0.3989,-3.39485 0.3989,-5.62857 0,-5.18227 -0.79723,-9.78449 -2.39337,-13.8052 -1.59612,-4.02075 -3.81301,-7.50485 -6.65058,-10.45336 z"
   id="text883"
   inkscape:connector-curvature="0" />




</svg>
